<?xml version="1.0" standalone="no"?>
<!DOCTYPE svg PUBLIC "-//W3C//DTD SVG 20010904//EN"
 "http://www.w3.org/TR/2001/REC-SVG-20010904/DTD/svg10.dtd">
<svg version="1.0" xmlns="http://www.w3.org/2000/svg"
 width="292.000000pt" height="331.000000pt" viewBox="0 0 292.000000 331.000000"
 preserveAspectRatio="xMidYMid meet">

<g transform="translate(0.000000,331.000000) scale(0.100000,-0.100000)"
fill="#000000" stroke="none">
<path d="M1477 2812 c-58 -59 -74 -69 -123 -80 -65 -16 -162 -55 -217 -89 -21
-13 -43 -21 -49 -17 -7 4 -8 3 -4 -4 8 -13 -28 -35 -39 -24 -3 4 -5 0 -3 -8 2
-9 -5 -15 -17 -15 -11 -1 -19 -6 -18 -12 1 -6 -10 -21 -25 -34 l-27 -24 20 25
20 25 -22 -19 c-13 -10 -21 -22 -18 -26 2 -4 -14 -24 -37 -46 -33 -31 -37 -34
-23 -11 29 45 3 30 -35 -20 -19 -26 -63 -74 -97 -106 -96 -92 -176 -223 -213
-352 -14 -48 -40 -234 -40 -286 0 -26 -4 -51 -10 -54 -17 -10 -11 -53 21 -159
40 -132 49 -153 93 -204 26 -32 36 -53 36 -78 l0 -34 -52 0 c-61 0 -128 -16
-128 -31 0 -6 -4 -8 -9 -5 -4 3 -11 -27 -15 -67 -3 -40 -13 -112 -21 -162 -8
-49 -20 -132 -27 -183 l-12 -93 72 -72 72 -72 83 2 c45 0 125 3 177 5 l95 3
64 -50 c35 -27 71 -54 80 -60 9 -5 36 -23 61 -39 l45 -31 402 0 c399 0 401 0
425 22 12 12 35 26 50 32 41 16 138 94 138 112 0 42 61 48 127 14 19 -10 60
-15 130 -15 96 0 103 2 134 27 17 15 45 45 60 67 36 48 37 81 9 301 -38 297
-29 265 -75 281 -22 7 -55 14 -72 14 -30 0 -33 3 -33 31 0 20 12 45 34 72 46
58 64 95 81 174 8 37 21 90 29 117 13 43 13 69 1 215 -17 194 -29 242 -98 376
-49 94 -62 110 -225 273 -96 94 -179 172 -185 172 -6 0 7 -19 28 -42 l40 -41
-50 40 c-104 85 -198 135 -335 177 -81 26 -88 30 -140 91 -30 36 -57 65 -60
65 -3 0 -36 -30 -73 -68z m122 -23 l52 -62 -26 -27 c-23 -24 -25 -34 -25 -113
0 -82 2 -88 30 -120 17 -19 30 -39 30 -44 0 -5 -13 -17 -30 -26 -24 -15 -30
-25 -30 -52 0 -18 -3 -42 -6 -52 -4 -10 17 5 46 32 55 52 55 52 26 -37 -17
-53 -8 -61 23 -22 15 19 21 41 21 74 0 39 4 49 19 53 27 7 31 0 31 -49 0 -46
11 -54 78 -54 39 0 42 -19 10 -50 -19 -18 -31 -21 -66 -16 -45 6 -88 -10 -142
-53 -24 -20 -24 -21 -3 -21 34 0 57 11 42 21 -27 16 40 21 85 6 43 -15 45 -14
94 14 l50 28 25 -19 c19 -15 41 -20 86 -20 47 0 70 -5 96 -22 19 -13 35 -26
35 -30 0 -5 -19 -21 -42 -38 -34 -25 -51 -30 -95 -30 -33 0 -66 -7 -83 -17
-27 -15 -30 -15 -75 11 -45 27 -47 27 -86 12 -50 -20 -89 -21 -89 -1 0 8 -11
17 -25 21 -46 11 -38 -3 21 -41 49 -32 64 -36 98 -32 46 6 96 -17 96 -45 0
-12 -12 -19 -44 -23 -52 -8 -81 -35 -73 -66 8 -29 -2 -49 -24 -49 -16 0 -19 8
-19 58 0 48 -4 62 -26 85 -14 16 -28 26 -30 24 -3 -3 4 -29 16 -58 24 -65 25
-76 3 -58 -18 15 -73 98 -73 111 0 4 7 8 15 8 23 0 18 13 -15 45 -34 33 -36
27 -15 -60 8 -33 15 -73 15 -89 0 -21 10 -38 33 -57 l32 -27 -34 -35 c-31 -33
-33 -38 -23 -67 10 -28 9 -33 -21 -60 -18 -16 -36 -29 -42 -29 -5 0 -25 12
-44 28 -31 26 -33 30 -23 58 9 28 7 34 -24 64 l-33 32 34 39 c25 27 35 48 35
71 0 17 7 59 14 92 8 33 13 62 10 64 -6 6 -44 -30 -56 -53 -9 -16 -7 -18 11
-13 34 8 26 -18 -24 -79 -35 -42 -45 -50 -45 -34 0 12 4 29 9 38 4 9 11 31 15
47 l8 30 -26 -24 c-23 -21 -26 -33 -26 -88 0 -61 -1 -63 -25 -63 -23 0 -25 4
-25 44 0 51 -11 63 -68 72 -31 5 -42 11 -42 25 0 30 38 49 85 42 44 -6 117 20
85 30 -8 3 -36 12 -62 22 -47 16 -48 16 -97 -10 -46 -26 -51 -26 -72 -11 -16
10 -45 16 -85 16 -34 0 -64 4 -66 8 -2 5 -20 20 -42 34 l-38 26 41 26 c31 20
54 26 98 26 39 0 68 6 89 19 l31 19 48 -28 c46 -27 50 -27 88 -14 54 19 72 18
89 -7 9 -14 22 -20 38 -17 22 3 18 7 -35 41 -53 33 -65 36 -105 31 -37 -5 -49
-2 -68 16 -31 29 -24 44 24 50 55 8 64 16 64 61 0 35 3 39 25 39 24 0 25 -3
25 -53 0 -44 4 -58 25 -77 29 -27 31 -18 9 45 -22 67 -14 73 34 24 l42 -44 0
42 c0 34 -6 46 -30 66 -16 14 -30 29 -30 33 0 4 12 21 28 37 25 26 27 36 31
119 3 86 2 91 -24 118 l-28 29 53 60 c29 34 54 61 55 61 1 0 25 -28 54 -61z
m-159 -103 c31 -34 21 -50 -41 -64 -100 -23 -229 -94 -313 -173 -172 -161
-249 -322 -273 -575 l-5 -61 118 -78 c152 -100 218 -132 272 -134 29 0 73 -16
134 -46 l91 -45 130 0 129 0 -5 -62 c-4 -35 -6 -112 -6 -172 -1 -60 -4 -106
-8 -102 -4 4 -6 25 -4 48 2 26 -2 44 -11 49 -11 7 -10 11 2 19 11 7 2 9 -30 5
-33 -4 -40 -3 -25 4 11 5 31 10 45 11 14 1 19 4 11 7 -11 5 -11 7 0 14 22 13
-3 30 -51 33 -23 2 -46 10 -51 17 -8 12 -11 11 -20 -3 -15 -26 -26 -22 -45 17
-18 39 -28 43 -42 19 -6 -11 -25 -17 -58 -18 -50 -2 -56 -8 -40 -46 4 -9 -2
-20 -14 -28 -18 -11 -20 -10 -21 10 -4 105 -7 139 -10 143 -3 2 -65 5 -137 6
-126 1 -134 2 -155 25 -21 22 -40 26 -63 11 -7 -4 -18 3 -27 16 -26 39 -77 87
-92 87 -14 0 -33 46 -23 56 3 2 18 -2 34 -11 16 -8 33 -15 38 -15 5 0 17 -6
26 -12 9 -7 0 2 -20 21 -19 18 -34 34 -32 35 3 1 -3 22 -20 69 -13 34 -32 36
-26 2 3 -14 2 -25 -1 -25 -12 0 -31 130 -31 215 0 66 -3 87 -15 91 -10 4 -11
11 -5 22 5 10 19 49 30 87 71 230 270 436 510 526 93 35 120 36 150 5z m343 0
c211 -75 417 -263 498 -455 55 -130 87 -316 70 -406 l-9 -50 -1 45 c-2 53 -13
75 -35 67 -13 -5 -16 -22 -16 -82 0 -47 -4 -74 -10 -70 -5 3 -7 30 -4 61 6 67
-11 196 -38 289 -24 84 -83 204 -103 212 -8 3 -15 13 -15 22 0 17 -65 91 -81
91 -5 0 -9 5 -9 10 0 6 7 10 15 10 8 0 15 7 15 15 0 17 -26 20 -36 4 -4 -7
-16 -2 -33 14 -69 65 -189 127 -313 162 -32 8 -58 18 -58 21 0 3 10 19 23 34
27 36 52 37 140 6z m-48 -155 c3 -5 1 -12 -5 -16 -5 -3 -10 1 -10 9 0 18 6 21
15 7z m-315 -11 c0 -5 -4 -10 -10 -10 -5 0 -10 5 -10 10 0 6 5 10 10 10 6 0
10 -4 10 -10z m-122 -147 c-3 -37 -4 -38 -45 -41 l-43 -3 0 40 0 41 46 0 45 0
-3 -37z m582 3 c0 -32 -2 -34 -42 -40 -44 -7 -58 2 -58 40 0 29 8 34 57 34 42
0 43 -1 43 -34z m-769 -22 c16 -15 16 -17 -3 -36 -11 -11 -21 -18 -22 -16 -1
2 -8 11 -15 20 -10 14 -10 20 1 32 17 19 18 19 39 0z m1017 -125 c-2 -6 -8
-10 -13 -10 -5 0 -11 4 -13 10 -2 6 4 11 13 11 9 0 15 -5 13 -11z m-1401 -77
c-14 -17 -17 -32 -22 -99 -2 -29 -11 -65 -20 -80 l-16 -28 4 37 c1 20 -1 34
-5 32 -4 -3 -8 -15 -8 -27 0 -14 -3 -18 -10 -11 -12 12 12 98 47 168 18 36 27
45 33 35 5 -8 4 -19 -3 -27z m1667 -15 c14 -30 29 -69 32 -88 4 -19 11 -42 16
-52 5 -9 6 -23 1 -30 -5 -8 -9 -4 -14 13 -7 24 -7 24 -8 -5 -1 -28 -2 -28 -15
-10 -15 23 -26 85 -15 85 4 0 10 -8 12 -17 4 -16 5 -16 6 -1 0 9 -6 23 -14 31
-8 8 -12 17 -9 20 3 3 -4 24 -15 47 -17 36 -20 60 -7 60 2 0 15 -24 30 -53z
m-344 -117 c0 -5 -4 -10 -10 -10 -5 0 -10 5 -10 10 0 6 5 10 10 10 6 0 10 -4
10 -10z m168 -87 c-4 -22 -22 -20 -26 1 -2 10 3 16 13 16 10 0 15 -7 13 -17z
m-1523 -33 c-4 -17 -9 -29 -12 -26 -3 2 -2 19 2 36 4 17 9 29 12 26 3 -2 2
-19 -2 -36z m1715 -3 c0 -24 -3 -28 -10 -17 -13 20 -13 63 0 55 6 -3 10 -21
10 -38z m-1450 9 c0 -3 -4 -8 -10 -11 -5 -3 -10 -1 -10 4 0 6 5 11 10 11 6 0
10 -2 10 -4z m338 -43 c-3 -37 -4 -38 -45 -41 l-43 -3 0 40 0 41 46 0 45 0 -3
-37z m580 0 c-3 -37 -4 -38 -45 -41 l-43 -3 0 40 0 41 46 0 45 0 -3 -37z m148
10 c-10 -10 -19 5 -10 18 6 11 8 11 12 0 2 -7 1 -15 -2 -18z m-1026 -118 c0
-8 -4 -15 -9 -15 -13 0 -22 16 -14 24 11 11 23 6 23 -9z m1246 -26 c48 -22 50
-26 31 -52 -11 -16 -17 -14 -66 23 -29 22 -57 40 -61 40 -12 0 -51 -52 -44
-59 3 -3 12 2 19 12 8 12 15 14 20 7 3 -5 11 -8 16 -5 5 4 9 1 9 -5 0 -6 6 -8
13 -4 6 4 9 4 5 -1 -11 -11 12 -36 25 -28 5 3 7 1 4 -4 -9 -14 -59 -3 -73 15
-9 12 -12 11 -24 -3 -10 -13 -15 -13 -21 -3 -7 10 -9 9 -9 -4 0 -12 -8 -18
-23 -18 -21 0 -24 -5 -26 -52 -3 -70 -11 -75 -11 -8 0 29 -3 51 -6 47 -6 -6
-10 -43 -12 -134 -2 -52 -3 -53 -32 -53 -27 0 -107 -38 -85 -41 6 -1 -19 -7
-55 -13 -36 -7 -67 -10 -70 -8 -3 2 -7 39 -10 83 -4 66 -3 79 10 79 23 0 86
36 166 96 40 29 103 69 141 88 74 38 91 39 169 5z m-1116 -25 c0 -16 -16 -19
-25 -4 -8 13 4 32 16 25 5 -4 9 -13 9 -21z m800 6 c0 -5 -2 -10 -4 -10 -3 0
-8 5 -11 10 -3 6 -1 10 4 10 6 0 11 -4 11 -10z m387 -82 c-3 -8 -6 -5 -6 6 -1
11 2 17 5 13 3 -3 4 -12 1 -19z m-507 -24 c0 -8 -5 -12 -10 -9 -6 4 -8 11 -5
16 9 14 15 11 15 -7z m-265 -32 c-3 -3 -11 0 -18 7 -9 10 -8 11 6 5 10 -3 15
-9 12 -12z m172 -28 c-3 -3 -12 -4 -19 -1 -8 3 -5 6 6 6 11 1 17 -2 13 -5z
m-747 -55 c0 -5 6 -9 14 -9 8 0 17 -7 20 -16 9 -23 7 -64 -3 -64 -20 0 -96 32
-113 47 -10 9 -18 12 -18 6 0 -5 9 -18 20 -28 11 -10 20 -24 20 -32 0 -18 -7
-16 -30 7 -19 19 -30 96 -12 88 4 -2 31 -16 61 -31 35 -19 57 -25 63 -19 7 7
-2 16 -26 27 -35 17 -42 26 -30 38 8 8 34 -3 34 -14z m-33 -125 c-3 -3 -12 -4
-19 -1 -8 3 -5 6 6 6 11 1 17 -2 13 -5z m1213 -4 c0 -5 -4 -10 -10 -10 -5 0
-10 5 -10 10 0 6 5 10 10 10 6 0 10 -4 10 -10z m-140 -20 c0 -15 -7 -20 -29
-20 -42 0 -48 18 -9 29 18 5 34 10 36 10 1 1 2 -8 2 -19z m-387 3 c-7 -2 -19
-2 -25 0 -7 3 -2 5 12 5 14 0 19 -2 13 -5z m-155 -10 c-16 -2 -40 -2 -55 0
-16 2 -3 4 27 4 30 0 43 -2 28 -4z m64 -43 c-3 -33 -1 -50 7 -50 6 0 11 -6 11
-14 0 -9 -8 -12 -24 -9 -26 5 -26 9 -8 76 6 20 7 38 4 41 -3 3 -1 6 5 6 6 0 8
-20 5 -50z m-53 24 c17 -4 31 -10 31 -15 0 -13 -41 -10 -75 6 -25 11 -27 14
-9 14 12 1 36 -2 53 -5z m41 -124 c0 -14 -7 -20 -22 -20 -22 1 -22 1 -5 14 14
11 15 15 5 19 -8 4 -7 6 5 6 11 1 17 -6 17 -19z m35 -11 c4 -12 2 -26 -4 -32
-6 -6 -11 -9 -12 -6 -8 44 -8 59 0 59 5 0 13 -9 16 -21z m-35 -29 c0 -5 -9
-10 -20 -10 -11 0 -20 5 -20 10 0 6 9 10 20 10 11 0 20 -4 20 -10z m-821 -65
c10 -10 12 -26 5 -72 l-9 -58 -35 0 c-33 0 -35 2 -35 35 -1 28 -5 36 -23 38
-25 4 -23 9 -52 -176 -25 -166 -25 -164 2 -160 17 2 24 11 28 33 5 27 10 30
44 33 l39 3 -5 -51 c-7 -71 -33 -96 -109 -105 -73 -9 -109 9 -109 53 0 39 57
410 65 423 13 21 51 28 115 23 36 -4 71 -12 79 -19z m1798 15 c23 0 32 -37 58
-249 26 -206 26 -213 8 -233 -16 -18 -26 -20 -85 -14 -135 12 -144 26 -169
269 -23 222 -22 224 73 230 35 2 72 2 83 0 11 -1 25 -3 32 -3z m-1544 -22 c13
-20 -18 -337 -38 -385 -18 -43 -44 -54 -136 -60 -78 -6 -78 -6 -84 20 -11 42
43 408 62 430 23 25 180 21 196 -5z m132 -15 c-17 -125 -31 -380 -18 -330 6
22 33 22 33 0 0 -93 37 235 40 355 0 11 70 18 81 8 2 -3 1 -62 -4 -133 -15
-259 -17 -271 -43 -302 -13 -16 -24 -40 -24 -53 0 -18 -9 -27 -40 -41 -22 -9
-51 -17 -65 -17 -23 0 -25 4 -25 43 0 37 -4 46 -25 55 -31 14 -32 39 -8 280
l17 172 43 0 43 0 -5 -37z m250 -148 l-7 -185 24 0 c25 0 25 2 31 107 4 58 7
141 7 185 l0 78 51 0 c51 0 51 0 44 -27 -4 -16 -10 -108 -13 -206 -7 -172 -8
-180 -31 -198 -18 -15 -39 -19 -97 -19 -108 0 -109 1 -95 225 6 97 11 187 11
200 0 23 4 25 41 25 l41 0 -7 -185z m305 166 c0 -11 -4 -23 -10 -26 -6 -4 -10
-70 -10 -166 0 -130 3 -164 16 -184 28 -43 13 -56 -58 -53 -61 3 -63 4 -60 28
2 14 8 29 13 35 13 13 12 345 -1 345 -5 0 -10 9 -10 20 0 18 7 20 60 20 53 0
60 -2 60 -19z m163 -78 c19 -54 38 -98 43 -98 5 0 22 44 39 98 l30 97 37 0
c46 0 44 10 57 -225 15 -251 19 -227 -31 -223 l-43 3 -5 100 c-5 105 -11 104
-30 -5 -16 -96 -19 -102 -43 -98 -19 3 -26 18 -49 103 -28 106 -30 105 -32
-20 l-1 -80 -38 -3 c-24 -2 -39 1 -42 10 -2 7 -5 109 -7 226 l-3 212 41 0 42
0 35 -97z m431 79 c10 -12 19 -49 25 -103 8 -78 7 -85 -11 -102 -20 -17 -20
-17 4 -42 20 -20 26 -39 32 -95 10 -108 6 -112 -112 -104 -53 4 -100 10 -105
13 -4 4 -12 95 -18 202 -5 107 -14 204 -19 216 -5 11 -6 24 -3 27 4 3 48 6 98
6 77 0 95 -3 109 -18z m-1039 -579 c0 -44 -4 -63 -12 -63 -7 0 -13 7 -13 15 0
8 -4 15 -10 15 -5 0 -9 -5 -7 -11 1 -6 -4 -14 -10 -16 -10 -3 -13 13 -13 62
l0 66 33 -3 32 -3 0 -62z m110 2 l0 -60 -30 0 c-29 0 -30 2 -33 49 -4 65 2 78
35 74 27 -3 28 -5 28 -63z m65 10 c0 -48 2 -55 20 -55 11 0 20 -4 20 -10 0 -5
-13 -10 -30 -10 l-30 0 0 65 c0 37 4 65 10 65 6 0 10 -25 10 -55z m140 45 c0
-5 -7 -10 -15 -10 -8 0 -15 -7 -15 -15 0 -8 5 -15 10 -15 16 0 12 -27 -6 -34
-20 -8 -8 -26 17 -26 11 0 17 -4 14 -10 -3 -5 -19 -10 -36 -10 l-29 0 0 65 0
65 30 0 c17 0 30 -4 30 -10z m115 -10 c9 -28 -3 -58 -26 -65 -10 -4 -19 -15
-19 -26 0 -10 -4 -19 -10 -19 -6 0 -10 28 -10 65 l0 65 29 0 c21 0 32 -6 36
-20z m65 -35 c0 -48 2 -55 20 -55 11 0 20 -4 20 -10 0 -5 -13 -10 -30 -10
l-30 0 0 65 c0 37 4 65 10 65 6 0 10 -25 10 -55z m139 7 c5 -26 13 -55 16 -65
5 -11 2 -17 -8 -17 -8 0 -17 6 -20 13 -4 10 -7 10 -18 0 -31 -30 -35 -13 -18
67 14 64 34 65 48 2z m65 26 l7 -23 9 23 c5 12 15 22 21 22 7 0 9 -8 4 -22 -4
-13 -12 -42 -18 -65 -13 -48 -27 -57 -27 -18 0 14 -7 42 -15 62 -18 43 -18 43
-1 43 7 0 17 -10 20 -22z"/>
<path d="M1274 2251 c5 -8 56 -3 56 5 0 2 -14 4 -31 4 -16 0 -28 -4 -25 -9z"/>
<path d="M1774 2250 c17 -6 36 -5 45 0 11 7 3 9 -29 9 -42 -1 -43 -1 -16 -9z"/>
<path d="M1581 2218 c-1 -43 3 -47 20 -17 7 13 7 19 1 15 -6 -3 -13 4 -15 16
-3 15 -5 9 -6 -14z"/>
<path d="M1493 2214 c-3 -8 -1 -20 6 -27 8 -8 11 -4 11 16 0 30 -7 35 -17 11z"/>
<path d="M1422 2078 c-13 -13 -16 -28 -4 -28 4 0 18 9 32 20 23 18 24 20 5 20
-12 0 -26 -5 -33 -12z"/>
<path d="M1260 1982 c0 -14 62 -24 74 -12 7 7 4 10 -9 10 -11 0 -30 3 -42 6
-13 4 -23 2 -23 -4z"/>
<path d="M1772 1983 c-12 -2 -20 -9 -17 -14 7 -10 54 -2 70 12 9 9 -11 10 -53
2z"/>
<path d="M2396 1022 c-5 -9 18 -258 29 -309 4 -16 13 -23 30 -23 30 0 30 -1 7
195 -16 129 -19 140 -39 143 -11 2 -24 -1 -27 -6z"/>
<path d="M816 1003 c-3 -15 -13 -84 -21 -152 -17 -131 -13 -157 23 -135 17 11
35 118 44 254 3 50 1 55 -19 58 -16 2 -22 -3 -27 -25z"/>
<path d="M2125 1021 c-10 -18 6 -102 22 -108 26 -10 36 12 27 64 -9 47 -33 69
-49 44z"/>
<path d="M2140 776 c0 -53 1 -56 26 -56 24 0 25 2 22 53 -3 45 -6 52 -25 55
-22 3 -23 0 -23 -52z"/>
<path d="M1160 530 c0 -19 3 -21 12 -12 9 9 9 15 0 24 -9 9 -12 7 -12 -12z"/>
<path d="M1266 534 c-10 -25 -7 -74 4 -74 6 0 10 20 10 45 0 47 -4 55 -14 29z"/>
<path d="M1585 537 c-4 -10 -5 -21 -1 -24 10 -10 18 4 13 24 -4 17 -4 17 -12
0z"/>
<path d="M1801 494 c0 -11 3 -14 6 -6 3 7 2 16 -1 19 -3 4 -6 -2 -5 -13z"/>
</g>
</svg>
